<svg width="120" height="94" viewBox="0 0 120 94" fill="none" xmlns="http://www.w3.org/2000/svg">
<path d="M24.85 80.65L24.5 80.35V66.9V53.45L27.35 50.85L30.15 48.25L27.45 48L24.75 47.75L24.6 38.15L24.5 28.5L25.4 27.65C27.2 25.85 34.1 19.8 35.45 18.8C36.2 18.2 37.7 16.9 38.8 15.9C39.85 14.9 41.35 13.6 42.1 13.05L43.4 12H49.45H55.5V16.75V21.5H56.5H57.5V16.75V12H62.9L68.25 12.05L69.75 13.4C70.6 14.15 71.85 15.5 72.6 16.35L73.9 17.95L77.15 14.95L80.45 11.95L86.6 12.1L92.75 12.25L92.9 25.95L93 39.65L90.15 42.3L87.3 44.95L90.05 45.1L92.75 45.25L92.9 54.85L93 64.5L92.1 65.35C91.6 65.85 89.55 67.7 87.5 69.5C85.45 71.3 82.55 73.9 81 75.25C79.5 76.65 77.4 78.5 76.35 79.4L74.45 81.05L68.35 80.9L62.25 80.75L62 76.3L61.75 71.85L61.15 71.6L60.5 71.4V76.2V81H55.2H49.85L48.25 80L46.65 79L45.25 77L43.9 75.05L40.45 78L36.95 81H31.05H25.15L24.85 80.65ZM57.5 65V61.5H59.75H62V57.4L61.95 53.25L64.85 50.65L67.75 48H64.9H62L61.9 36.4L61.75 24.85L61.15 24.6L60.5 24.4V27.95V31.5H58H55.5V35.8V40.1L53.9 41.5C53 42.3 51.7 43.4 51 43.95L49.75 44.95L52.65 45H55.5V56.75V68.5H56.5H57.5V65ZM42.9 56.25L42.75 51.35L39.9 53.8L37.05 56.25L37 61.75V67.25L40 64.2L43.05 61.2L42.9 56.25ZM79.9 61.6L80.5 60.8V55.85V50.9L77.5 53.5L74.5 56.1V61.35V66.65L76.9 64.5C78.2 63.3 79.55 62 79.9 61.6ZM41.4 38.3L43 36.8V31.85V26.95L40 29.3L37 31.65V36.9V42.15L38.4 40.95C39.15 40.3 40.5 39.1 41.4 38.3ZM77.8 39.15L80.5 36.8V31.6V26.4L77.5 29L74.5 31.6V36.55V41.5H74.8C74.95 41.5 76.3 40.45 77.8 39.15Z" fill="black"/>
</svg>
